<svg width="20" height="20" viewBox="0 0 20 20" fill="none" xmlns="http://www.w3.org/2000/svg">
<path d="M3.33337 11.2501V3.33341C3.33337 2.89139 3.50897 2.46746 3.82153 2.1549C4.13409 1.84234 4.55801 1.66675 5.00004 1.66675H12.0834L16.6667 6.25008V16.6667C16.6667 17.1088 16.4911 17.5327 16.1786 17.8453C15.866 18.1578 15.4421 18.3334 15 18.3334H10.4167" stroke="#707786" stroke-width="2" stroke-linecap="round" stroke-linejoin="round"/>
<path d="M11.6666 1.66675V6.66675H16.6666" stroke="#707786" stroke-width="2" stroke-linecap="round" stroke-linejoin="round"/>
<path d="M8.68337 10.5084C8.84589 10.3459 9.03881 10.217 9.25114 10.1291C9.46348 10.0411 9.69105 9.99585 9.92087 9.99585C10.1507 9.99585 10.3783 10.0411 10.5906 10.1291C10.8029 10.217 10.9959 10.3459 11.1584 10.5084C11.3209 10.6709 11.4498 10.8639 11.5377 11.0762C11.6257 11.2885 11.671 11.5161 11.671 11.7459C11.671 11.9758 11.6257 12.2033 11.5377 12.4157C11.4498 12.628 11.3209 12.8209 11.1584 12.9834L6.62504 17.5001L3.33337 18.3334L4.15837 15.0418L8.68337 10.5084Z" stroke="#707786" stroke-width="2" stroke-linecap="round" stroke-linejoin="round"/>
</svg>
