<?xml version="1.0" standalone="no"?>
<!DOCTYPE svg PUBLIC "-//W3C//DTD SVG 20010904//EN"
 "http://www.w3.org/TR/2001/REC-SVG-20010904/DTD/svg10.dtd">
<svg version="1.0" xmlns="http://www.w3.org/2000/svg"
 width="916.000000pt" height="565.000000pt" viewBox="0 0 916.000000 565.000000"
 preserveAspectRatio="xMidYMid meet">

<g transform="translate(0.000000,565.000000) scale(0.100000,-0.100000)"
fill="#000000" stroke="none">
<path d="M5227 5583 c-4 -3 -7 -416 -7 -917 l0 -911 -43 -49 c-38 -46 -120
-142 -215 -255 -54 -64 -102 -119 -144 -165 l-36 -41 -35 17 -34 16 -6 105
c-6 104 -6 105 -68 227 -48 95 -70 127 -95 142 -37 22 -40 28 -49 111 -3 31
-11 57 -16 57 -5 0 -9 7 -9 15 0 8 -4 15 -8 15 -4 0 -16 13 -25 30 -10 16 -23
35 -30 42 -7 7 -28 36 -47 63 -18 28 -37 52 -40 55 -4 3 -12 14 -17 25 -10 19
-18 20 -119 15 l-109 -5 -3 -832 c-1 -458 2 -833 6 -833 4 0 16 -35 27 -77 10
-43 25 -90 32 -105 16 -33 32 -30 -156 -28 -161 2 -153 -2 -192 80 -26 54 -33
60 -81 60 -27 0 -40 6 -48 20 -18 33 -93 19 -130 -24 -11 -15 -14 -15 -25 1
-12 16 -17 15 -75 -15 -48 -24 -66 -29 -76 -21 -16 13 -84 3 -84 -11 0 -6 -14
-10 -31 -10 -16 0 -49 -4 -72 -9 -23 -6 -58 -13 -78 -16 -20 -3 -47 -14 -59
-25 -13 -11 -27 -20 -31 -20 -4 0 -11 -9 -14 -20 -5 -16 -15 -20 -50 -20 -48
0 -41 10 -110 -155 -21 -49 -45 -99 -55 -110 -9 -11 -29 -51 -45 -90 -16 -38
-44 -104 -63 -145 -30 -66 -33 -80 -25 -112 12 -43 9 -48 -26 -48 -14 0 -35
-7 -45 -15 -23 -18 -50 -20 -40 -4 4 8 -3 9 -25 4 -39 -8 -40 4 0 46 29 31 31
37 24 83 -8 64 -8 58 -6 81 0 11 19 43 41 70 22 28 53 66 69 85 27 34 35 59
62 197 17 88 8 207 -20 261 -21 42 -85 97 -148 127 -18 9 -38 21 -45 28 -7 7
-43 32 -80 57 -37 25 -71 54 -76 65 -5 11 -21 70 -36 130 -25 103 -27 119 -20
250 7 149 -1 191 -57 311 -10 22 -19 45 -19 51 0 5 -18 28 -40 51 -22 22 -40
48 -40 58 0 23 -47 84 -65 84 -26 0 -27 21 -1 45 14 13 26 34 26 46 0 12 -21
65 -47 118 -25 53 -46 101 -46 106 1 6 8 27 17 47 l16 36 -50 95 c-28 53 -50
104 -50 114 0 49 -99 153 -169 179 -25 10 -53 23 -61 29 -26 21 -155 45 -236
45 -98 0 -156 -15 -265 -69 -95 -46 -132 -86 -190 -206 -27 -56 -34 -84 -37
-151 -6 -106 11 -157 92 -277 34 -51 68 -105 76 -122 8 -16 18 -32 21 -35 3
-3 11 -24 16 -48 11 -43 11 -44 -18 -54 -18 -6 -31 -19 -35 -34 -3 -13 -10
-24 -15 -24 -5 0 -9 -6 -9 -13 0 -32 -49 -109 -94 -146 -23 -20 -29 -26 -67
-76 -40 -51 -65 -101 -74 -145 -3 -19 -17 -57 -30 -85 -13 -27 -26 -58 -29
-67 -9 -29 -84 -59 -200 -80 -181 -32 -233 -68 -260 -183 -15 -61 -16 -90 -6
-225 12 -181 23 -250 55 -380 46 -184 99 -296 222 -465 17 -24 38 -56 46 -72
41 -78 182 -182 267 -197 22 -4 57 0 89 10 29 8 56 13 59 10 3 -4 6 -37 6 -74
1 -37 5 -73 9 -79 4 -7 7 -62 6 -123 -2 -90 1 -113 14 -128 10 -11 17 -35 17
-58 0 -22 5 -45 10 -50 17 -17 -7 -55 -63 -99 -76 -60 -100 -116 -105 -241 -3
-77 -1 -108 11 -130 39 -75 114 -121 307 -190 71 -26 118 -36 185 -40 50 -3
109 -7 132 -10 l42 -5 6 -65 7 -64 184 0 184 0 0 70 c0 39 3 70 8 70 45 1 358
78 477 118 60 20 190 98 240 143 36 33 96 130 110 179 4 14 13 28 19 32 6 4
75 8 154 8 136 0 144 -1 162 -23 11 -12 43 -47 71 -78 57 -63 109 -138 109
-156 0 -7 4 -13 8 -13 5 0 14 -19 20 -42 31 -122 74 -266 84 -286 l11 -22 387
0 386 0 -27 83 c-25 76 -36 120 -71 272 -11 51 -106 372 -134 455 -23 68 -34
134 -44 260 -14 189 -47 316 -100 383 -12 15 -28 27 -36 27 -8 0 -14 5 -14 11
0 7 168 10 566 7 l566 -3 25 -30 c50 -61 52 -74 53 -371 l1 -279 -293 -5
c-161 -3 -295 -7 -297 -8 -5 -3 8 -534 15 -640 6 -70 9 -82 23 -77 9 2 133 5
276 6 l260 2 -3 -47 -4 -46 231 0 c202 0 232 2 238 16 3 9 9 11 12 6 10 -16
109 -21 129 -6 9 7 41 14 70 14 45 0 52 3 52 20 0 17 7 20 40 20 27 0 47 -7
60 -20 11 -11 31 -20 45 -20 16 0 25 -6 25 -15 0 -10 10 -15 30 -15 l30 0 0
745 0 745 364 0 364 0 6 27 c3 16 8 64 11 109 7 88 6 90 -55 114 -19 8 -37 16
-40 19 -5 6 -27 17 -135 69 -22 10 -58 28 -80 40 -22 11 -68 34 -102 51 -34
16 -70 35 -80 40 -10 5 -47 24 -83 42 -355 176 -539 272 -544 284 -5 14 -40
16 -268 14 l-263 -1 0 297 c0 255 2 299 15 306 27 13 115 37 123 32 4 -2 7
-116 7 -254 l0 -249 1725 0 1725 0 -2 1578 -3 1577 -1716 3 c-943 1 -1719 -1
-1722 -5z m3403 -1573 l0 -1540 -1685 0 -1685 0 0 260 c0 143 -3 260 -7 260
-12 0 -438 -126 -731 -217 -46 -14 -86 -22 -89 -19 -5 4 77 108 107 136 3 3
25 30 50 60 41 51 150 178 177 208 7 7 29 34 50 60 21 25 50 60 64 77 15 16
68 80 120 140 51 61 96 112 99 115 3 3 25 30 50 60 25 30 47 57 50 60 3 3 18
20 33 38 l27 34 0 904 0 904 1685 0 1685 0 0 -1540z m-6776 213 c9 -27 28 -68
41 -92 14 -24 23 -51 20 -60 -9 -29 22 -150 53 -204 17 -29 36 -72 43 -96 12
-41 11 -43 -14 -65 -18 -15 -27 -34 -29 -62 -2 -31 -7 -39 -23 -40 -35 -2 -38
-4 -25 -18 6 -8 18 -12 25 -10 10 4 12 0 8 -15 -3 -12 -11 -17 -19 -14 -8 3
-14 -1 -14 -10 0 -8 5 -17 10 -19 6 -2 8 -17 4 -37 l-7 -34 -22 27 c-17 21
-39 32 -85 43 -57 13 -64 12 -81 -3 -28 -25 -24 -38 24 -86 42 -44 67 -79 67
-98 0 -5 -24 -10 -52 -10 -80 0 -97 -8 -103 -44 -4 -17 -14 -42 -24 -55 -18
-23 -18 -23 -54 -6 -21 9 -37 21 -37 24 0 4 -24 23 -52 41 -29 19 -59 40 -67
47 -7 8 -50 38 -95 68 -44 30 -95 67 -111 82 -29 27 -31 31 -27 91 3 46 7 61
15 54 20 -14 92 -34 111 -30 15 2 21 -8 33 -52 19 -76 37 -98 99 -127 88 -40
82 -11 -7 37 -37 19 -55 55 -75 145 l-9 40 -46 -3 c-64 -5 -104 17 -129 73
-15 34 -18 52 -12 82 8 34 11 38 37 36 43 -3 48 -15 28 -64 l-18 -44 -5 44
c-7 66 -28 65 -22 -1 5 -54 31 -98 60 -98 10 0 12 6 7 23 -9 31 -8 58 4 70 8
8 11 5 11 -8 0 -22 43 -68 54 -58 10 10 7 19 -15 44 -11 13 -18 32 -15 42 7
27 -44 80 -77 80 -16 0 -26 4 -24 11 6 16 54 10 73 -8 8 -9 20 -16 25 -16 5 0
15 -11 21 -25 6 -14 17 -25 23 -25 7 0 15 -9 18 -21 7 -24 29 -16 25 9 -3 21
24 71 49 93 10 9 35 35 56 58 21 22 50 44 63 47 13 3 24 11 24 16 0 5 7 16 15
24 24 24 18 73 -16 125 -51 80 -40 89 126 113 50 8 98 14 107 15 11 1 21 -14
32 -46z m2461 -150 c19 -29 35 -55 35 -58 0 -3 16 -29 35 -58 19 -28 35 -55
35 -59 0 -5 -24 -8 -53 -8 -56 0 -63 6 -127 100 -8 12 -20 28 -25 34 -15 16
-65 95 -65 101 0 3 29 5 65 3 l65 -2 35 -53z m-177 10 c65 -95 91 -134 110
-166 l22 -38 -1 -907 c-1 -1060 12 -1003 -119 -547 l-40 140 0 768 c0 422 3
767 8 767 4 0 13 -8 20 -17z m319 -795 c-1 -79 -3 -15 -3 142 0 157 2 221 3
143 2 -79 2 -207 0 -285z m-2429 292 c19 -21 67 -213 57 -230 -3 -5 -2 -17 3
-26 16 -29 34 43 22 86 -15 54 -12 65 10 37 11 -14 20 -33 20 -44 0 -39 21
-95 34 -90 23 9 59 -132 52 -201 -18 -163 -18 -176 5 -257 12 -44 25 -99 30
-122 4 -23 16 -64 25 -92 9 -27 14 -54 12 -60 -1 -5 -20 -1 -42 10 -30 14 -63
19 -140 20 l-101 1 1 146 c2 189 -16 269 -70 319 -20 18 -36 36 -36 40 0 3 -7
14 -16 24 -11 12 -20 50 -26 110 -10 105 -32 155 -83 196 -59 47 -43 65 37 41
57 -17 92 -62 108 -139 15 -74 19 -84 31 -72 4 4 4 35 -1 68 -7 48 -4 79 13
158 11 53 24 97 29 97 4 0 15 -9 26 -20z m-791 -143 c32 -24 87 -63 123 -87
36 -24 67 -47 68 -52 2 -4 25 -23 50 -40 26 -18 56 -40 66 -50 18 -17 18 -17
-7 -29 -14 -6 -31 -25 -38 -40 -6 -16 -14 -29 -17 -29 -3 0 -26 17 -51 38 -53
45 -90 66 -99 58 -3 -4 5 -14 19 -23 13 -9 48 -41 78 -70 l55 -53 27 26 28 27
47 -42 c26 -22 50 -41 54 -41 13 0 29 -52 45 -150 22 -133 36 -192 51 -215 23
-33 16 -37 -17 -8 -17 16 -39 44 -49 64 -10 19 -38 57 -62 85 -24 27 -67 81
-95 119 -28 39 -70 86 -94 105 -23 19 -50 42 -59 50 -42 41 -90 72 -90 58 0
-7 18 -27 39 -44 74 -57 128 -112 187 -190 32 -44 87 -114 121 -157 35 -44 63
-85 63 -92 0 -7 25 -35 55 -61 30 -27 55 -52 55 -56 0 -8 70 -122 115 -188 22
-31 40 -46 58 -48 15 -2 27 -7 27 -12 0 -5 8 -11 18 -14 17 -6 42 -47 84 -141
l19 -40 -5 36 c-2 20 -14 57 -25 82 -25 56 -27 70 -4 37 33 -47 52 -124 46
-189 -4 -41 -2 -61 5 -61 8 0 10 30 9 93 -5 145 -49 216 -155 246 -37 10 -42
14 -31 27 9 11 30 15 73 14 34 -1 66 -1 71 0 16 3 -28 19 -55 19 -14 1 -32 6
-40 11 -13 9 -13 11 0 20 27 17 93 11 131 -13 83 -51 100 -73 116 -149 8 -39
12 -81 9 -92 -21 -86 -28 -107 -51 -148 -14 -25 -49 -70 -78 -99 -29 -30 -66
-72 -82 -94 -17 -22 -34 -43 -40 -47 -11 -8 -95 -1 -135 11 -14 5 -52 17 -85
27 -71 22 -190 112 -335 255 -80 79 -234 223 -341 320 -15 13 -43 47 -64 74
-21 28 -39 52 -41 54 -1 1 -7 0 -13 -4 -15 -9 41 -81 141 -182 77 -79 87 -106
23 -63 -16 12 -50 30 -75 42 -25 11 -48 22 -52 25 -5 2 -8 2 -8 0 0 -9 143
-98 202 -125 48 -23 91 -57 183 -147 66 -64 152 -143 192 -175 39 -32 84 -69
100 -84 15 -14 36 -26 46 -26 10 0 44 -9 76 -20 33 -11 84 -23 115 -26 73 -9
92 -29 78 -81 -5 -21 -13 -47 -17 -58 -4 -14 2 -10 22 12 26 29 30 30 48 16
13 -9 32 -13 56 -9 26 4 40 1 49 -9 8 -10 30 -16 54 -16 23 0 59 -1 81 -2 22
-1 50 2 61 6 17 6 25 2 38 -19 20 -29 13 -47 -8 -19 -16 22 -71 23 -95 1 -10
-9 -20 -16 -23 -16 -3 0 -25 -19 -49 -43 -24 -23 -59 -53 -78 -67 -19 -14 -39
-29 -45 -35 -38 -34 -150 -78 -256 -101 -77 -17 -328 -19 -362 -3 -20 9 -62
58 -93 110 -54 89 -74 118 -99 144 -40 42 -86 115 -86 138 0 11 -11 40 -24 66
-36 71 -85 177 -107 234 -33 85 -48 117 -101 226 -93 190 -125 320 -135 534
-5 138 -5 150 14 175 11 15 23 52 26 82 10 80 59 168 147 262 77 82 77 82 101
65 13 -10 39 -29 58 -42 19 -14 38 -25 43 -25 15 0 4 22 -17 34 -36 22 -85 77
-85 97 0 30 29 78 47 79 2 0 29 -20 60 -43z m585 -205 c-2 -12 4 -47 13 -78
12 -43 28 -67 67 -105 28 -27 46 -49 40 -49 -6 0 -17 6 -24 13 -16 14 -99 57
-112 57 -16 0 -56 55 -56 77 0 22 -20 48 -41 55 -19 6 0 46 24 50 12 2 38 4
57 3 31 0 35 -3 32 -23z m-18 -221 c27 -12 55 -29 63 -37 8 -8 20 -14 26 -14
15 -1 68 -50 86 -80 7 -13 15 -53 17 -89 l3 -66 -12 65 c-7 36 -16 64 -22 63
-12 -4 -12 4 4 -118 14 -105 12 -182 -4 -118 -4 18 -14 38 -21 44 -8 6 -14 18
-14 26 0 8 -8 27 -18 41 -10 15 -29 53 -41 85 -13 31 -27 57 -31 57 -4 0 -12
11 -18 24 -6 13 -31 52 -56 86 -25 34 -46 70 -46 79 1 13 3 13 18 -4 9 -11 39
-31 66 -44z m3206 -256 l0 -85 -75 0 c-60 0 -76 -3 -84 -17 -8 -13 -10 6 -11
73 l0 91 55 2 c47 2 55 -1 56 -16 1 -12 3 -10 9 7 7 24 7 24 18 -10 7 -25 10
-28 11 -13 1 23 11 53 17 53 2 0 4 -38 4 -85z m-200 -27 c0 -45 -3 -78 -7 -74
-4 4 -7 28 -6 54 0 31 -1 36 -4 15 -4 -31 -23 -47 -23 -20 0 8 -4 7 -10 -3 -7
-12 -10 -8 -10 15 0 17 -3 40 -6 52 -5 18 -1 23 27 32 19 5 35 10 37 10 1 1 2
-36 2 -81z m-210 2 c0 -5 -7 -10 -16 -10 -8 0 -12 5 -9 10 3 6 10 10 16 10 5
0 9 -4 9 -10z m-143 -357 c-1 -59 -3 -13 -3 102 0 116 2 164 3 108 2 -56 2
-151 0 -210z m-2091 218 c11 -10 48 -37 82 -61 34 -23 62 -45 62 -49 0 -11
-47 -31 -70 -31 -11 0 -29 -9 -40 -20 -27 -27 -30 -26 -30 13 0 18 -9 50 -19
71 -42 82 -34 123 15 77z m-134 -13 c83 -44 113 -100 103 -190 -4 -32 -11 -58
-16 -58 -5 0 -9 -8 -9 -17 0 -12 -22 5 -63 48 -84 90 -132 113 -214 106 l-63
-6 0 35 c0 27 8 42 32 65 31 27 37 29 119 29 50 0 97 -5 111 -12z m2773 -58
c3 -5 1 -10 -4 -10 -6 0 -11 5 -11 10 0 6 2 10 4 10 3 0 8 -4 11 -10z m-2460
-50 c3 -5 -1 -10 -9 -10 -9 0 -16 5 -16 10 0 6 4 10 9 10 6 0 13 -4 16 -10z
m69 -59 c9 -8 16 -22 16 -32 0 -10 5 -21 10 -24 6 -3 10 -25 10 -48 l0 -42
-24 30 c-58 73 -100 105 -137 105 -18 0 -19 2 -9 15 15 19 110 16 134 -4z
m1021 -1 c8 -13 -25 -13 -45 0 -12 8 -9 10 12 10 15 0 30 -4 33 -10z m-158
-42 c-2 -24 -9 -34 -28 -39 -53 -13 -60 23 -11 53 39 23 44 22 39 -14z m-942
-17 c16 -9 44 -37 62 -61 19 -25 38 -51 44 -58 9 -10 9 -24 0 -52 -6 -20 -11
-53 -11 -71 0 -19 -4 -41 -10 -49 -7 -12 -11 -10 -18 10 -16 41 -68 100 -119
133 -38 26 -57 32 -94 30 l-47 -2 8 32 c13 55 21 68 59 92 40 25 75 24 126 -4z
m1201 -3 c26 -50 65 -98 80 -98 7 0 30 -29 51 -66 21 -36 52 -88 70 -117 41
-66 46 -77 41 -82 -2 -2 -46 -9 -98 -15 -52 -6 -117 -16 -145 -22 -28 -7 -111
-11 -189 -10 -77 1 -214 -5 -305 -13 -91 -9 -189 -15 -219 -13 l-54 3 7 35 c4
19 11 55 15 80 5 25 9 68 9 96 1 28 8 68 16 88 8 19 14 41 13 47 -2 6 3 14 11
17 11 4 13 -2 7 -29 -4 -19 -9 -56 -11 -84 l-5 -50 16 63 c13 53 19 63 35 60
17 -3 21 -13 24 -69 l4 -67 -39 -6 c-46 -7 -50 -12 -65 -88 l-13 -58 85 2 84
3 -6 25 c-9 35 -15 38 -31 15 -14 -19 -16 -19 -25 -3 -7 13 -17 16 -39 11 -25
-5 -30 -2 -30 15 0 16 9 22 40 27 27 5 46 3 55 -5 12 -10 15 -9 15 7 0 11 -5
33 -10 49 -14 41 -17 93 -9 134 9 38 -3 60 -32 60 -11 0 -19 5 -19 10 0 17 61
7 70 -11 5 -9 6 -19 3 -23 -3 -3 3 -6 15 -6 11 0 23 4 27 10 3 5 12 7 19 4 8
-3 17 0 21 6 5 8 11 7 23 -2 13 -11 14 -10 8 15 -4 18 -2 27 6 27 7 0 21 12
33 26 l20 25 23 -24 23 -24 -41 -7 c-32 -5 -41 -10 -38 -24 2 -12 11 -16 28
-14 37 4 71 24 66 38 -3 7 -2 15 1 18 10 10 33 -15 33 -35 0 -20 15 -25 25 -9
3 6 22 10 40 10 29 0 37 -5 51 -32 10 -18 19 -27 21 -20 5 14 -18 72 -29 72
-5 0 -8 5 -8 10 0 6 9 10 20 10 15 0 22 -8 26 -29 6 -27 9 -29 47 -28 24 1 42
-3 44 -10 3 -8 -5 -13 -21 -13 -14 0 -26 -3 -26 -7 0 -5 -3 -18 -6 -30 -5 -17
-2 -23 10 -23 15 0 18 -8 21 -66 0 -11 11 -31 23 -44 21 -23 22 -23 22 -3 0
19 6 21 63 19 53 -1 87 -12 87 -29 0 -3 -19 -8 -42 -12 -24 -3 -52 -9 -62 -12
-14 -4 -18 -1 -13 11 4 9 2 16 -3 16 -11 0 -13 -30 -4 -54 8 -20 34 -21 34 -2
0 8 14 16 33 19 17 3 41 7 51 9 10 2 21 -2 23 -8 2 -7 -13 -14 -38 -17 -65 -9
-64 -22 2 -21 33 1 62 4 65 7 7 7 -22 68 -45 95 -15 17 -26 22 -41 17 -15 -5
-21 -3 -19 7 3 16 -39 88 -52 88 -5 0 -9 7 -9 15 0 26 -31 65 -51 65 -11 0
-19 5 -19 10 0 6 9 10 20 10 16 0 18 4 10 24 -11 29 -5 36 31 36 22 0 32 -8
45 -32z m-126 -17 c0 -5 -7 -14 -15 -21 -12 -10 -15 -10 -15 2 0 8 3 18 7 21
9 10 23 9 23 -2z m-372 -18 c2 -9 -9 -13 -37 -13 -39 0 -50 8 -34 24 11 11 66
2 71 -11z m-138 -53 c0 -5 -7 -10 -15 -10 -8 0 -15 5 -15 10 0 6 7 10 15 10 8
0 15 -4 15 -10z m567 -36 c-3 -3 -16 -4 -29 -2 l-23 5 25 10 c23 10 41 1 27
-13z m530 -44 c13 -36 34 -96 47 -135 l23 -70 88 -3 c79 -3 89 -1 106 19 10
12 19 29 19 38 1 9 10 -1 21 -22 17 -32 18 -41 7 -55 -10 -12 -10 -14 0 -8 16
10 53 -33 48 -56 -2 -10 1 -16 7 -15 5 1 13 -7 16 -18 18 -59 -9 -56 419 -58
216 -1 392 0 393 3 7 51 6 66 -2 82 -5 10 -16 18 -24 18 -7 0 -27 11 -43 25
-17 14 -35 25 -41 25 -6 0 -11 6 -11 13 -1 6 -19 26 -40 42 -21 17 -39 35 -40
40 0 6 -21 32 -46 59 -59 62 -83 103 -77 127 5 18 17 19 236 19 l231 0 66 -32
c36 -18 67 -36 70 -39 8 -9 136 -69 147 -69 6 0 13 -4 15 -9 3 -10 131 -71
148 -71 5 0 10 -4 10 -9 0 -9 129 -71 148 -71 7 0 12 -4 12 -9 0 -5 34 -27 76
-48 161 -81 211 -109 253 -140 24 -18 51 -33 60 -33 18 -1 72 -29 56 -30 -88
-4 -1122 4 -1180 9 -44 5 -177 4 -295 -1 -118 -5 -505 -7 -860 -6 l-645 3 75
24 c91 29 100 36 100 72 0 33 -3 32 127 29 l82 -2 9 39 c24 93 22 109 -14 169
-19 31 -34 58 -34 61 0 2 -20 38 -45 79 -25 40 -45 76 -45 79 0 3 68 4 152 3
l151 -3 24 -65z m-1867 36 c0 -3 -4 -8 -10 -11 -5 -3 -10 -1 -10 4 0 6 5 11
10 11 6 0 10 -2 10 -4z m2407 -129 l6 -59 -47 -45 c-26 -25 -49 -43 -51 -41
-10 11 -97 143 -102 154 -3 8 8 20 30 30 19 9 42 29 51 45 10 17 30 32 49 37
30 8 33 7 45 -27 7 -20 16 -62 19 -94z m-1765 62 c-1 -30 -7 -84 -13 -121
l-11 -68 -38 0 c-31 0 -39 4 -44 23 -9 33 -7 75 2 59 7 -10 14 -8 34 7 19 15
28 17 36 9 9 -9 12 -9 12 1 0 7 -6 19 -14 26 -11 12 -17 11 -35 -2 -32 -22
-34 -13 -12 43 11 27 22 57 25 66 3 12 14 16 33 14 27 -3 28 -5 25 -57z m-520
35 c17 -9 42 -28 56 -42 35 -38 82 -113 82 -131 0 -9 -16 -36 -35 -61 -73 -94
-85 -116 -88 -158 -1 -25 -7 -42 -14 -42 -7 0 -23 -10 -38 -22 -14 -13 -36
-32 -50 -43 -14 -11 -25 -26 -25 -32 0 -19 10 -16 30 10 20 24 40 16 24 -11
-13 -20 -68 -34 -106 -26 -34 7 -34 9 -3 80 14 31 25 62 25 69 0 8 5 15 12 17
6 2 8 10 4 16 -5 8 -24 -21 -51 -77 -24 -49 -49 -92 -55 -96 -7 -4 -21 1 -32
13 -20 20 -20 20 6 105 14 47 26 89 26 93 -1 19 -38 -64 -51 -114 -10 -42 -19
-57 -42 -69 -26 -13 -31 -13 -44 0 -14 14 -14 20 1 63 18 55 19 64 7 64 -5 0
-12 -18 -16 -40 -6 -34 -9 -39 -21 -29 -8 6 -14 17 -14 23 1 17 48 71 56 63 8
-7 34 37 34 57 0 7 10 22 23 33 12 11 30 31 41 43 17 21 20 22 30 7 7 -8 30
-17 52 -19 34 -3 39 -6 42 -30 3 -29 22 -39 80 -46 6 -1 12 -11 12 -22 0 -24
15 -27 24 -4 10 26 -12 53 -47 56 -24 2 -33 8 -35 25 -4 28 -38 53 -71 53 -13
0 -22 3 -19 6 3 3 41 1 85 -5 67 -9 82 -15 105 -41 17 -18 30 -25 34 -19 3 6
-7 25 -24 41 -28 28 -38 32 -131 41 -78 7 -99 13 -91 22 6 7 19 38 30 69 24
71 49 114 69 119 36 10 84 6 113 -9z m1234 10 c12 -3 28 -18 35 -32 7 -15 15
-30 16 -33 2 -3 -10 -6 -27 -6 -16 0 -30 4 -30 9 0 5 4 7 9 3 5 -3 12 -1 15 4
4 5 -8 11 -26 13 -25 2 -34 8 -36 26 -4 23 6 26 44 16z m1455 -139 c77 -85
101 -115 88 -114 -8 0 -27 9 -44 19 -16 11 -43 26 -60 34 -57 28 -67 42 -74
105 -4 34 -5 63 -3 66 3 3 17 -12 31 -33 13 -20 41 -55 62 -77z m-589 -15 c55
-74 78 -119 78 -156 0 -19 -3 -34 -7 -34 -10 1 -113 212 -113 230 0 16 -1 17
42 -40z m-185 -29 c26 1 49 -2 51 -7 1 -5 -2 -9 -8 -8 -5 1 -35 2 -65 3 -43 1
-55 4 -55 17 0 13 3 14 14 4 8 -6 36 -10 63 -9z m-1304 -38 c-7 -2 -19 -2 -25
0 -7 3 -2 5 12 5 14 0 19 -2 13 -5z m918 -66 c-6 -6 -11 -21 -11 -34 0 -13 -5
-23 -11 -23 -6 0 -9 7 -5 15 3 8 1 15 -4 15 -6 0 -10 -5 -10 -11 0 -6 -7 -9
-15 -5 -8 3 -15 1 -15 -5 0 -10 -27 -10 -140 1 -3 0 2 5 10 10 12 8 11 10 -6
10 -11 0 -29 9 -38 19 -17 18 -15 19 41 26 32 3 92 14 133 24 l75 17 3 -24 c2
-14 -1 -29 -7 -35z m-1108 28 c-3 -9 -8 -14 -10 -11 -3 3 -2 9 2 15 9 16 15
13 8 -4z m37 1 c0 -8 -4 -18 -10 -21 -5 -3 -10 3 -10 14 0 12 5 21 10 21 6 0
10 -6 10 -14z m30 7 c0 -5 -5 -15 -10 -23 -8 -12 -10 -11 -10 8 0 12 5 22 10
22 6 0 10 -3 10 -7z m-90 -13 c0 -5 -4 -10 -10 -10 -5 0 -10 -5 -10 -10 0 -6
11 -8 25 -4 20 5 25 2 25 -12 0 -16 2 -17 10 -4 9 13 11 13 20 0 5 -8 10 -20
10 -26 0 -6 11 -23 26 -37 23 -23 23 -26 7 -31 -10 -3 0 -3 22 0 50 7 38 7
120 5 70 -1 70 -1 90 -38 11 -20 36 -44 55 -55 34 -18 32 -18 -250 -16 -237 2
-261 3 -140 8 138 6 140 6 44 8 -101 2 -102 2 -108 28 -4 15 -4 41 -1 58 l6
31 -15 -29 c-18 -32 -21 -56 -6 -56 6 0 10 -7 10 -15 0 -9 -9 -15 -25 -15 -32
0 -32 20 0 85 14 28 25 60 25 71 0 26 36 74 56 74 8 0 14 -4 14 -10z m717 -54
c6 -6 16 -27 21 -46 8 -26 10 -29 11 -12 1 13 -4 32 -9 43 -10 17 -7 19 27 19
57 0 116 -19 109 -35 -2 -7 4 -15 15 -18 33 -9 21 -35 -23 -50 -112 -40 -151
-48 -259 -54 -122 -6 -167 2 -213 38 -44 35 -15 88 66 120 35 14 63 16 143 12
55 -3 105 -10 112 -17z m-543 2 c3 3 6 0 6 -7 0 -8 -7 -10 -20 -6 -11 4 -20 2
-20 -4 0 -12 44 -14 142 -5 38 4 65 11 62 16 -3 5 -25 7 -48 4 -29 -4 -35 -3
-21 3 11 5 42 10 68 10 l48 1 -24 -25 c-22 -25 -27 -26 -131 -23 -101 3 -109
5 -117 25 -7 20 -5 21 21 13 16 -4 31 -6 34 -2z m2313 -34 c-3 -3 -12 -4 -19
-1 -8 3 -5 6 6 6 11 1 17 -2 13 -5z m-2855 -126 c6 -16 -23 -66 -41 -73 -10
-4 -12 2 -7 26 9 49 39 76 48 47z m1095 -34 c-3 -3 -12 -4 -19 -1 -8 3 -5 6 6
6 11 1 17 -2 13 -5z m-1207 -160 c0 -7 -27 -34 -34 -34 -3 0 -10 9 -16 20 -10
18 -8 20 20 20 16 0 30 -3 30 -6z m-44 -101 c-7 -7 -36 54 -36 74 0 10 9 -2
20 -26 11 -24 18 -46 16 -48z m-52 -3 c9 -29 7 -35 -18 -57 -33 -28 -42 -27
-64 10 -16 26 -16 27 18 56 19 17 39 29 45 27 5 -1 14 -17 19 -36z m356 30 c0
-5 -5 -10 -11 -10 -5 0 -7 5 -4 10 3 6 8 10 11 10 2 0 4 -4 4 -10z m-188 -52
c-7 -7 -12 -8 -12 -2 0 6 3 14 7 17 3 4 9 5 12 2 2 -3 -1 -11 -7 -17z m80 5
c38 -17 50 -33 25 -33 -7 0 -22 7 -33 15 -10 8 -27 15 -36 15 -20 0 -25 20 -6
20 6 0 29 -8 50 -17z m-342 -66 c0 -5 -7 -4 -15 3 -8 7 -15 20 -15 29 1 13 3
13 15 -3 8 -11 15 -24 15 -29z m300 7 c-12 -13 -40 -9 -40 6 0 11 22 18 38 12
9 -3 10 -8 2 -18z m-346 -19 c23 -34 21 -40 -20 -61 -20 -11 -51 -27 -69 -36
-28 -14 -171 -58 -190 -58 -6 0 -45 62 -45 71 0 3 26 11 58 18 72 16 196 59
219 77 25 18 28 18 47 -11z m153 -11 c-3 -3 -12 -4 -19 -1 -8 3 -5 6 6 6 11 1
17 -2 13 -5z m-87 -47 c0 -2 -10 -12 -22 -23 l-23 -19 19 23 c18 21 26 27 26
19z m-502 -33 c13 -3 22 -12 22 -24 0 -10 5 -22 10 -25 6 -3 10 -13 10 -21 0
-11 -15 -14 -66 -14 -120 0 -194 31 -194 81 0 17 7 18 98 13 53 -3 107 -7 120
-10z m92 -34 c25 -48 26 -61 3 -29 -30 41 -44 69 -33 69 5 0 19 -18 30 -40z
m390 -19 c0 -5 -6 -13 -13 -19 -15 -13 -42 1 -33 17 8 13 46 15 46 2z m-115
-19 c-3 -3 -11 0 -18 7 -9 10 -8 11 6 5 10 -3 15 -9 12 -12z m43 7 c-2 -6 -8
-10 -13 -10 -5 0 -11 4 -13 10 -2 6 4 11 13 11 9 0 15 -5 13 -11z m-583 -39
c3 -5 1 -10 -4 -10 -6 0 -11 5 -11 10 0 6 2 10 4 10 3 0 8 -4 11 -10z m3582
-302 c-3 -7 -5 -2 -5 12 0 14 2 19 5 13 2 -7 2 -19 0 -25z m47 -33 c3 -8 1
-15 -4 -15 -6 0 -10 7 -10 15 0 8 2 15 4 15 2 0 6 -7 10 -15z m-504 -145 c0
-5 -4 -10 -10 -10 -5 0 -10 5 -10 10 0 6 5 10 10 10 6 0 10 -4 10 -10z"/>
<path d="M5783 5313 c-22 -4 -23 -9 -23 -109 l0 -104 25 0 c22 0 25 4 25 38 0
32 4 38 22 39 37 3 76 24 81 43 6 24 -3 67 -17 79 -14 11 -84 20 -113 14z m86
-57 c2 -11 -5 -26 -15 -33 -31 -22 -44 -16 -44 23 0 33 2 35 27 32 18 -2 29
-10 32 -22z"/>
<path d="M5963 5314 c-9 -4 -13 -36 -13 -110 l0 -104 25 0 c23 0 25 4 25 45 0
25 3 45 8 45 18 -1 37 -22 48 -52 7 -22 18 -34 32 -36 27 -4 30 24 6 69 -14
28 -14 32 0 48 38 42 4 90 -69 96 -27 3 -56 2 -62 -1z m95 -58 c4 -20 -13 -36
-40 -36 -13 0 -18 8 -18 31 0 27 3 30 27 27 18 -2 29 -10 31 -22z"/>
<path d="M6373 5312 c-11 -7 -36 -74 -48 -132 -5 -19 -9 -30 -11 -25 -1 6 -12
43 -25 83 -20 62 -26 72 -46 72 -27 0 -28 -7 -9 -57 8 -21 22 -64 32 -96 16
-55 18 -58 47 -55 29 3 32 8 63 98 19 52 33 98 34 101 0 11 -26 18 -37 11z"/>
<path d="M6473 5313 c-10 -4 -73 -182 -73 -207 0 -3 10 -6 23 -6 16 0 26 9 34
30 8 23 18 30 37 30 18 0 30 -9 41 -30 16 -31 55 -42 55 -16 0 17 -51 178 -59
187 -9 10 -45 18 -58 12z m31 -69 c12 -33 6 -54 -15 -54 -17 0 -20 4 -15 23 3
12 6 28 6 35 0 17 17 15 24 -4z"/>
<path d="M6670 5301 c-47 -25 -67 -77 -52 -129 14 -47 55 -72 116 -72 38 0 46
3 46 19 0 14 -10 19 -46 24 -53 6 -61 12 -70 54 -9 45 30 83 86 83 27 0 40 4
40 14 0 31 -69 35 -120 7z"/>
<path d="M6822 5312 c-9 -3 -4 -19 18 -58 22 -40 30 -66 30 -104 0 -47 2 -50
25 -50 23 0 25 4 25 43 0 32 9 59 35 102 38 62 38 62 15 65 -30 5 -37 -1 -50
-40 -7 -22 -16 -40 -20 -40 -4 0 -13 18 -20 39 -12 38 -31 52 -58 43z"/>
<path d="M7103 5314 c-9 -4 -13 -36 -13 -110 0 -104 0 -104 24 -104 21 0 25 5
28 38 3 34 6 37 35 40 35 3 73 41 73 72 0 36 -34 62 -86 66 -27 2 -55 1 -61
-2z m95 -62 c2 -16 -3 -25 -20 -31 -31 -12 -38 -6 -38 30 0 27 3 30 28 27 19
-2 28 -9 30 -26z"/>
<path d="M7330 5308 c-38 -20 -64 -76 -56 -120 16 -84 110 -117 175 -62 28 23
31 32 31 79 0 41 -5 60 -23 80 -26 31 -89 42 -127 23z m82 -45 c20 -18 24 -73
8 -104 -11 -20 -54 -26 -79 -10 -19 12 -20 93 -2 114 17 22 49 22 73 0z"/>
<path d="M7533 5313 c-9 -3 -13 -34 -13 -109 l0 -104 70 0 c63 0 70 2 70 19 0
16 -8 20 -42 23 l-43 3 -3 82 c-3 80 -10 96 -39 86z"/>
<path d="M7703 5313 c-9 -3 -13 -34 -13 -109 l0 -104 25 0 25 0 0 104 c0 104
-5 120 -37 109z"/>
<path d="M7833 5305 c-32 -14 -63 -59 -63 -93 0 -68 48 -112 124 -112 39 0 46
3 46 20 0 16 -7 20 -38 20 -60 0 -80 28 -74 101 2 20 55 43 82 36 10 -3 25 2
31 10 27 32 -48 44 -108 18z"/>
<path d="M7977 5313 c-3 -5 6 -29 20 -54 14 -25 28 -68 32 -99 5 -47 9 -55 29
-58 20 -3 22 1 22 40 0 33 9 59 35 102 37 62 42 76 24 76 -23 0 -45 -20 -59
-54 -7 -20 -17 -36 -20 -36 -9 0 -30 47 -30 65 0 8 -4 15 -9 15 -5 0 -16 3
-24 6 -8 3 -17 1 -20 -3z"/>
<path d="M6140 5205 l0 -105 25 0 25 0 0 105 0 105 -25 0 -25 0 0 -105z"/>
<path d="M6157 4863 c-4 -3 -7 -22 -7 -41 0 -31 -2 -34 -24 -28 -54 13 -107
-43 -91 -96 14 -46 34 -58 91 -55 l54 2 0 113 c0 102 -5 124 -23 105z m-9
-139 c4 -48 -15 -69 -52 -60 -29 7 -43 54 -26 86 9 16 19 20 43 18 30 -3 32
-6 35 -44z"/>
<path d="M7264 4857 c-10 -28 1 -210 14 -215 9 -3 12 24 12 112 0 73 -4 116
-10 116 -6 0 -13 -6 -16 -13z"/>
<path d="M7345 4857 c-11 -28 0 -210 13 -215 15 -5 18 213 2 223 -6 3 -13 0
-15 -8z"/>
<path d="M7637 4862 c-3 -4 -4 -54 -4 -111 2 -73 6 -106 15 -108 7 -3 12 4 12
19 0 48 16 52 46 14 16 -20 35 -36 42 -36 17 0 15 7 -13 44 -30 40 -31 57 -5
81 11 10 20 22 20 27 0 17 -20 7 -54 -29 l-36 -38 0 73 c0 63 -9 88 -23 64z"/>
<path d="M5530 4843 c0 -20 47 -193 54 -201 15 -15 34 14 50 77 10 39 21 73
25 75 4 3 15 -31 24 -75 24 -103 39 -103 71 0 29 93 35 125 21 129 -5 2 -18
-27 -29 -65 -27 -102 -28 -103 -43 -38 -7 33 -15 70 -18 83 -8 33 -43 29 -51
-5 -3 -16 -13 -53 -22 -83 l-15 -55 -22 84 c-11 47 -26 86 -33 89 -7 2 -12 -5
-12 -15z"/>
<path d="M6583 4825 c-9 -28 -8 -35 2 -35 7 0 16 11 19 25 9 35 9 39 -1 42 -5
2 -14 -12 -20 -32z"/>
<path d="M6660 4815 c0 -9 -7 -18 -15 -21 -8 -4 -15 -10 -15 -15 0 -5 7 -9 15
-9 11 0 15 -13 15 -53 0 -58 12 -77 47 -77 28 0 30 16 3 23 -17 4 -20 14 -20
55 0 42 3 51 21 55 23 6 17 27 -7 27 -8 0 -14 7 -14 15 0 8 -7 15 -15 15 -8 0
-15 -7 -15 -15z"/>
<path d="M5850 4793 c-32 -13 -50 -47 -44 -83 9 -52 30 -70 81 -70 31 0 43 4
40 13 -2 7 -16 11 -34 9 -29 -3 -63 18 -63 39 0 5 25 9 55 9 52 0 55 2 55 24
0 15 -11 33 -26 45 -27 21 -38 24 -64 14z m60 -48 c0 -11 -12 -15 -40 -15 -45
0 -51 11 -18 34 24 17 58 6 58 -19z"/>
<path d="M6260 4788 c-36 -20 -49 -81 -23 -116 27 -37 90 -43 118 -12 23 25
25 94 4 116 -21 20 -71 26 -99 12z m85 -47 c9 -29 -5 -70 -26 -76 -45 -15 -79
27 -64 76 14 42 76 42 90 0z"/>
<path d="M6461 4791 c-7 -5 -22 -6 -33 -3 -18 4 -19 0 -16 -68 2 -48 7 -75 16
-78 8 -2 12 12 12 50 0 58 12 78 46 78 27 0 34 -17 34 -81 0 -37 4 -49 15 -49
25 0 21 114 -5 140 -21 21 -46 25 -69 11z"/>
<path d="M6825 4788 c-11 -27 -1 -141 13 -146 8 -2 12 11 12 48 0 50 15 80 39
80 12 0 15 13 4 23 -3 4 -12 2 -20 -4 -10 -9 -17 -8 -28 1 -12 10 -16 9 -20
-2z"/>
<path d="M6968 4793 c-23 -6 -51 -68 -42 -96 12 -41 35 -57 81 -57 31 0 43 4
40 13 -2 7 -16 11 -34 9 -29 -3 -63 18 -63 39 0 5 25 9 55 9 50 0 55 2 55 23
0 28 -9 41 -37 56 -22 11 -27 12 -55 4z m62 -48 c0 -11 -12 -15 -40 -15 -45 0
-51 11 -18 34 24 17 58 6 58 -19z"/>
<path d="M7128 4793 c-29 -7 -21 -24 10 -21 56 4 71 -26 18 -36 -37 -7 -66
-33 -63 -56 5 -33 18 -39 73 -38 51 1 55 3 50 22 -3 12 -6 42 -6 67 0 39 -4
47 -25 57 -27 12 -29 13 -57 5z m57 -83 c11 -18 -15 -51 -38 -48 -31 4 -34 36
-5 47 30 13 36 13 43 1z"/>
<path d="M7417 4793 c-3 -5 5 -40 19 -77 13 -37 24 -71 24 -76 0 -5 -12 -20
-26 -33 -32 -30 -16 -44 19 -17 27 21 101 185 91 201 -10 18 -31 -10 -43 -56
-6 -25 -15 -45 -20 -45 -4 0 -16 21 -26 48 -20 53 -30 68 -38 55z"/>
<path d="M7855 4790 c-3 -6 -17 -7 -31 -4 -24 6 -24 6 -24 -70 0 -61 3 -76 15
-76 11 0 15 13 15 53 0 57 12 77 46 77 27 0 34 -17 34 -81 0 -38 3 -49 16 -49
25 0 15 127 -11 146 -22 16 -51 18 -60 4z"/>
<path d="M8013 4788 c-33 -16 -47 -59 -33 -102 12 -38 25 -46 74 -46 54 0 84
50 65 107 -15 47 -59 64 -106 41z m73 -33 c32 -49 -3 -107 -55 -90 -39 12 -37
89 2 105 32 13 35 12 53 -15z"/>
<path d="M8156 4791 c-4 -6 3 -43 15 -81 28 -86 47 -89 69 -12 8 28 17 52 20
52 3 0 12 -24 20 -52 20 -71 39 -69 67 7 25 69 28 98 11 93 -7 -3 -20 -33 -29
-69 l-17 -64 -18 63 c-21 76 -41 79 -63 9 -8 -26 -18 -47 -21 -47 -4 0 -13 21
-20 48 -15 53 -25 69 -34 53z"/>
<path d="M5797 4483 c-4 -3 -7 -55 -7 -115 0 -89 3 -108 15 -108 11 0 15 12
15 48 0 58 17 85 51 80 22 -3 24 -8 27 -65 2 -49 6 -63 19 -63 13 0 15 11 10
67 -6 88 -26 104 -89 78 -16 -6 -18 -1 -18 39 0 43 -7 55 -23 39z"/>
<path d="M6425 4480 c-4 -6 -5 -23 -3 -38 3 -26 1 -27 -39 -27 -53 0 -75 -21
-77 -73 -1 -61 23 -82 90 -79 l54 2 0 107 c0 98 -9 135 -25 108z m-7 -106 c15
-27 2 -75 -24 -86 -45 -21 -80 34 -54 83 13 23 65 26 78 3z"/>
<path d="M7157 4483 c-4 -3 -7 -55 -7 -115 0 -89 3 -108 15 -108 8 0 15 5 15
12 0 9 3 9 12 0 21 -21 75 -15 92 10 17 23 21 85 8 104 -16 25 -53 36 -83 25
l-29 -10 0 45 c0 41 -7 53 -23 37z m102 -102 c18 -12 17 -70 -3 -89 -21 -21
-62 -8 -70 22 -9 37 9 76 36 76 13 0 29 -4 37 -9z"/>
<path d="M6140 4435 c0 -9 -7 -18 -15 -21 -19 -8 -20 -24 0 -24 10 0 15 -16
17 -62 3 -63 3 -63 36 -66 35 -4 44 12 12 21 -17 4 -20 14 -20 55 0 42 3 51
21 55 22 6 18 27 -6 27 -7 0 -15 7 -19 15 -7 20 -26 19 -26 0z"/>
<path d="M6662 4425 c-19 -20 -20 -25 -8 -32 9 -5 16 -27 18 -62 3 -58 21 -80
54 -67 18 8 18 9 -3 17 -20 7 -23 16 -23 59 0 37 4 50 14 50 23 0 29 19 9 27
-10 4 -22 13 -28 20 -8 10 -15 7 -33 -12z"/>
<path d="M7702 4425 c-21 -21 -22 -26 -8 -31 12 -5 16 -20 16 -58 0 -57 12
-76 47 -76 28 0 30 16 3 23 -17 4 -20 14 -20 56 0 38 4 51 14 51 23 0 29 19 9
27 -10 4 -22 13 -28 20 -8 10 -15 7 -33 -12z"/>
<path d="M5745 4412 c-12 -9 -35 -72 -35 -97 0 -30 -16 -5 -30 48 -17 62 -43
65 -59 5 -18 -71 -26 -74 -40 -13 -8 35 -18 55 -27 55 -18 0 -18 -2 7 -82 12
-37 28 -68 35 -68 7 0 20 21 30 48 24 65 30 69 39 25 18 -96 43 -96 74 2 24
74 25 91 6 77z"/>
<path d="M5987 4413 c-15 -14 -5 -22 31 -25 48 -4 45 -19 -8 -37 -39 -13 -41
-15 -38 -50 l3 -36 58 -1 57 -1 0 36 c0 60 -18 108 -43 115 -29 8 -52 8 -60
-1z m69 -88 c8 -20 -13 -45 -38 -45 -27 0 -35 30 -13 46 25 18 44 18 51 -1z"/>
<path d="M6528 4413 c-31 -8 -20 -22 20 -25 47 -4 48 -20 0 -32 -44 -11 -65
-43 -49 -74 10 -18 20 -21 65 -20 l53 1 -2 46 c-3 73 -4 79 -21 95 -15 16 -32
18 -66 9z m57 -83 c3 -6 3 -19 0 -31 -5 -15 -14 -19 -33 -17 -31 4 -38 20 -17
42 19 18 41 21 50 6z"/>
<path d="M6781 4406 c-11 -12 -6 -15 31 -18 60 -4 52 -29 -14 -43 -19 -3 -30
-14 -34 -30 -10 -40 10 -55 72 -53 l53 2 -4 53 c-2 29 -6 62 -10 72 -9 30 -74
42 -94 17z m75 -81 c8 -20 -13 -45 -38 -45 -27 0 -35 30 -13 46 25 18 44 18
51 -1z"/>
<path d="M7004 4405 c-18 -13 -16 -14 24 -15 51 0 60 -27 13 -36 -45 -9 -67
-38 -53 -69 10 -22 17 -24 67 -23 l55 2 0 42 c0 96 -49 142 -106 99z m71 -75
c10 -16 -14 -50 -35 -50 -25 0 -33 15 -20 40 11 21 44 27 55 10z"/>
<path d="M7373 4408 c-29 -14 -47 -67 -34 -101 18 -48 80 -62 122 -28 28 22
33 91 9 116 -21 20 -70 27 -97 13z m78 -45 c21 -55 -31 -104 -72 -67 -22 19
-23 32 -9 68 14 38 66 37 81 -1z"/>
<path d="M7526 4413 c-11 -11 -6 -97 7 -123 11 -22 19 -25 70 -26 l57 -1 0 62
c0 35 -3 70 -6 79 -11 29 -24 5 -24 -44 0 -31 -6 -54 -16 -64 -36 -37 -64 -10
-64 60 0 50 -9 72 -24 57z"/>
<path d="M7865 4408 c-3 -8 5 -41 19 -73 31 -69 32 -86 6 -103 -20 -12 -28
-42 -12 -42 20 0 57 55 88 131 18 46 31 85 29 87 -12 12 -32 -11 -44 -52 -7
-25 -17 -46 -21 -46 -4 0 -15 21 -25 48 -21 57 -32 71 -40 50z"/>
<path d="M8059 4405 c-31 -17 -43 -61 -28 -104 20 -56 117 -53 139 5 11 28 3
72 -16 92 -20 20 -67 23 -95 7z m83 -41 c24 -53 -44 -112 -77 -67 -17 22 -18
34 -5 67 14 37 66 37 82 0z"/>
<path d="M8327 4413 c-4 -3 -7 -22 -7 -42 0 -54 -10 -80 -33 -87 -29 -9 -47
20 -47 78 0 38 -3 48 -16 48 -14 0 -16 -9 -11 -66 3 -40 10 -70 18 -75 20 -13
63 -11 77 3 9 9 12 9 12 0 0 -7 7 -12 15 -12 12 0 15 14 15 68 0 65 -9 99 -23
85z"/>
<path d="M5912 3998 c2 -78 7 -113 16 -116 8 -2 12 12 12 50 0 58 12 78 46 78
27 0 34 -17 34 -81 0 -38 3 -49 16 -49 14 0 16 10 12 66 -4 72 -24 100 -62 88
-38 -11 -41 -9 -44 34 -2 29 -8 42 -18 42 -12 0 -14 -19 -12 -112z"/>
<path d="M7232 3998 c2 -78 7 -113 16 -116 8 -2 12 9 12 40 0 70 9 88 40 88
33 0 40 -14 40 -81 0 -37 4 -49 15 -49 12 0 15 13 15 60 0 76 -22 104 -75 94
l-35 -6 0 41 c0 30 -4 41 -15 41 -13 0 -15 -17 -13 -112z"/>
<path d="M8155 4069 c-6 -28 -1 -48 10 -37 3 2 8 19 11 36 8 42 -12 43 -21 1z"/>
<path d="M7573 4044 c-17 -19 -19 -25 -8 -32 8 -4 15 -29 17 -61 3 -58 21 -80
54 -67 18 8 18 9 -3 17 -20 7 -23 16 -23 58 0 42 3 50 23 56 l22 8 -22 4 c-13
2 -23 11 -23 18 0 24 -15 24 -37 -1z"/>
<path d="M5717 4033 c-20 -5 -47 -52 -47 -81 0 -11 9 -31 21 -46 17 -21 29
-26 65 -26 24 0 44 5 44 10 0 6 -15 10 -34 10 -33 0 -66 21 -66 41 0 5 25 9
55 9 51 0 55 2 55 23 0 44 -45 73 -93 60z m44 -23 c32 -17 24 -40 -14 -40 -43
0 -51 9 -30 32 19 21 19 21 44 8z"/>
<path d="M6107 4033 c-28 -7 -9 -23 29 -23 44 0 47 -28 3 -37 -40 -8 -65 -44
-49 -73 9 -18 19 -20 63 -17 l52 3 -2 63 c-1 35 -5 67 -10 72 -11 11 -63 19
-86 12z m71 -96 c4 -18 -33 -41 -54 -33 -22 8 -17 36 9 46 28 11 41 8 45 -13z"/>
<path d="M6450 4031 c-48 -13 -61 -90 -22 -133 16 -20 102 -26 102 -8 0 6 -15
10 -34 10 -33 0 -66 21 -66 41 0 5 25 9 55 9 50 0 55 2 55 23 -1 45 -41 71
-90 58z m60 -46 c0 -10 -11 -15 -34 -15 -43 0 -53 14 -25 34 25 17 59 6 59
-19z"/>
<path d="M6679 4033 c-26 -7 -51 -60 -44 -93 9 -43 31 -60 75 -60 30 0 43 6
59 26 25 32 26 57 4 94 -20 35 -50 45 -94 33z m71 -42 c14 -28 13 -46 -8 -71
-40 -49 -101 6 -73 66 14 31 65 34 81 5z"/>
<path d="M6875 4030 c-3 -6 -17 -7 -31 -4 l-25 6 3 -72 c2 -48 7 -75 16 -78 8
-2 12 11 12 48 0 50 15 80 39 80 6 0 11 7 11 15 0 17 -16 20 -25 5z"/>
<path d="M7433 4033 c-22 -8 -14 -26 8 -20 11 3 27 3 35 0 21 -8 17 -33 -5
-33 -23 0 -71 -37 -71 -55 0 -29 30 -45 78 -42 46 3 47 4 49 37 3 57 -14 107
-40 114 -25 7 -37 7 -54 -1z m61 -81 c3 -5 2 -19 -1 -31 -4 -17 -12 -21 -32
-19 -34 4 -40 35 -9 47 30 12 36 13 42 3z"/>
<path d="M8020 4027 c-16 -8 -28 -26 -34 -50 -8 -31 -6 -42 11 -65 16 -21 29
-28 67 -30 27 -2 46 1 46 7 0 6 -15 11 -34 11 -33 0 -66 21 -66 41 0 5 25 9
55 9 51 0 55 2 55 23 0 50 -53 78 -100 54z m58 -19 c24 -24 13 -38 -28 -38
-44 0 -48 5 -23 32 19 21 34 23 51 6z"/>
<path d="M8265 4030 c-3 -6 -17 -7 -31 -4 l-25 6 3 -72 c2 -48 7 -75 16 -78 8
-2 12 11 12 46 0 48 17 82 41 82 5 0 9 7 9 15 0 17 -16 20 -25 5z"/>
<path d="M8357 4033 c-20 -5 -47 -52 -47 -81 0 -11 9 -31 21 -46 17 -21 29
-26 65 -26 24 0 44 5 44 10 0 6 -15 10 -34 10 -33 0 -66 21 -66 41 0 5 25 9
55 9 51 0 55 2 55 23 0 44 -45 73 -93 60z m44 -23 c32 -17 24 -40 -14 -40 -43
0 -51 9 -30 32 19 21 19 21 44 8z"/>
<path d="M5430 4024 c0 -3 10 -37 21 -75 25 -83 44 -88 67 -16 8 26 18 47 22
47 3 0 13 -21 21 -47 9 -28 21 -48 29 -48 8 0 24 26 36 60 27 72 28 85 11 85
-8 0 -19 -23 -27 -56 -12 -47 -16 -54 -26 -40 -6 9 -14 34 -18 56 -5 30 -11
40 -25 40 -15 0 -22 -12 -31 -50 -7 -27 -16 -50 -20 -50 -5 0 -14 23 -21 50
-7 28 -19 50 -26 50 -7 0 -13 -3 -13 -6z"/>
<path d="M6240 4021 c0 -15 43 -116 56 -130 18 -20 30 -7 52 52 11 28 23 60
27 70 5 12 2 17 -8 17 -10 0 -22 -19 -32 -50 -9 -27 -20 -50 -25 -50 -5 0 -16
23 -25 50 -10 29 -23 50 -31 50 -8 0 -14 -4 -14 -9z"/>
<path d="M6980 4020 c0 -5 6 -27 14 -47 8 -21 17 -51 21 -66 9 -43 36 -31 54
26 8 26 17 47 21 47 4 0 13 -21 21 -47 22 -70 41 -67 64 9 10 35 20 69 23 76
2 6 -2 12 -10 12 -10 0 -19 -20 -28 -57 -11 -50 -14 -55 -25 -40 -7 10 -15 35
-19 57 -5 30 -11 40 -25 40 -14 0 -22 -12 -30 -42 -18 -71 -26 -74 -40 -13 -8
35 -18 55 -27 55 -8 0 -14 -4 -14 -10z"/>
<path d="M7740 4020 c0 -5 6 -27 14 -47 8 -21 17 -51 21 -66 9 -43 36 -31 54
26 8 26 17 47 21 47 4 0 13 -21 21 -47 9 -28 21 -48 29 -48 8 0 24 26 36 60
27 72 28 85 11 85 -8 0 -19 -22 -27 -55 -11 -47 -15 -53 -25 -37 -7 9 -15 34
-19 55 -5 27 -12 37 -26 37 -13 0 -20 -10 -25 -39 -3 -22 -12 -47 -20 -57 -11
-16 -14 -12 -25 39 -7 37 -16 57 -26 57 -8 0 -14 -4 -14 -10z"/>
<path d="M5714 3705 c-4 -8 -4 -22 0 -30 3 -8 3 -22 0 -30 -5 -11 -10 -12 -26
-4 -14 8 -28 7 -48 -1 -50 -21 -64 -95 -24 -134 18 -18 65 -21 81 -5 8 8 13 8
17 0 19 -30 26 -2 26 104 0 72 -4 115 -10 115 -6 0 -13 -7 -16 -15z m-6 -132
c3 -38 0 -44 -24 -55 -23 -11 -28 -10 -45 11 -36 44 -16 94 34 89 30 -3 32 -6
35 -45z"/>
<path d="M6914 3707 c-10 -28 1 -210 14 -215 8 -2 12 11 12 45 0 63 17 88 53
79 25 -6 27 -10 27 -66 0 -49 3 -60 16 -60 14 0 16 10 12 65 -2 36 -9 70 -15
76 -13 13 -51 15 -75 5 -16 -7 -18 -2 -18 38 0 43 -15 62 -26 33z"/>
<path d="M7804 3707 c-10 -27 1 -210 13 -214 8 -3 13 14 15 53 2 41 8 60 21
68 32 20 52 -4 55 -68 2 -41 7 -56 17 -56 19 0 21 108 3 133 -14 18 -52 24
-80 12 -16 -6 -18 -1 -18 39 0 43 -15 62 -26 33z"/>
<path d="M5972 3693 c5 -25 28 -28 28 -4 0 12 -6 21 -16 21 -9 0 -14 -7 -12
-17z"/>
<path d="M6727 3703 c-12 -11 -8 -23 8 -23 8 0 15 7 15 15 0 16 -12 20 -23 8z"/>
<path d="M7165 3700 c-8 -13 4 -32 16 -25 12 8 12 35 0 35 -6 0 -13 -4 -16
-10z"/>
<path d="M7510 3698 c0 -7 11 -56 24 -108 35 -138 51 -132 91 33 11 44 21 32
34 -41 7 -37 16 -74 20 -81 15 -24 39 -4 49 41 6 24 18 69 28 101 16 55 14 81
-6 61 -5 -5 -17 -42 -27 -81 -10 -40 -21 -73 -24 -73 -4 0 -14 34 -24 75 -25
114 -43 114 -72 -2 -10 -40 -21 -73 -25 -73 -4 0 -10 12 -14 28 -23 100 -31
126 -42 130 -7 2 -12 -2 -12 -10z"/>
<path d="M6810 3665 c0 -9 -7 -18 -16 -22 -15 -5 -15 -7 0 -15 11 -6 16 -23
16 -58 0 -64 7 -80 36 -80 27 0 32 15 9 24 -11 4 -15 21 -15 62 0 46 3 55 15
50 8 -3 15 -1 15 4 0 6 -6 10 -14 10 -7 0 -16 9 -19 20 -6 23 -27 27 -27 5z"/>
<path d="M7244 3655 c-17 -18 -18 -25 -8 -29 10 -4 14 -23 14 -59 0 -58 12
-77 47 -77 28 0 30 16 3 23 -17 4 -20 14 -20 55 0 42 3 51 21 55 12 3 18 10
15 16 -4 6 -13 8 -21 4 -10 -3 -15 2 -15 16 0 27 -10 26 -36 -4z"/>
<path d="M5829 3639 c-50 -19 -63 -85 -24 -124 44 -45 117 -25 130 34 7 34
-18 91 -39 91 -8 0 -20 2 -28 4 -7 3 -25 0 -39 -5z m61 -29 c25 -25 26 -53 3
-80 -32 -38 -82 -15 -83 38 0 22 32 62 50 62 6 0 19 -9 30 -20z"/>
<path d="M6055 3638 c-11 -27 -1 -141 13 -146 8 -2 12 12 12 50 0 58 12 78 46
78 27 0 34 -17 34 -81 0 -37 4 -49 15 -49 11 0 15 12 15 49 0 27 -4 61 -9 74
-11 28 -46 40 -73 26 -14 -7 -23 -7 -34 1 -11 10 -15 9 -19 -2z"/>
<path d="M6263 3638 c-28 -13 -46 -57 -37 -92 11 -46 73 -73 102 -44 9 9 12 8
12 -8 0 -30 -20 -44 -62 -44 -45 0 -50 -15 -8 -24 37 -7 75 7 89 33 6 11 11
56 11 99 l0 80 -34 0 c-19 0 -38 2 -43 5 -4 2 -18 0 -30 -5z m65 -30 c19 -19
15 -76 -6 -87 -25 -13 -66 8 -70 36 -7 50 44 83 76 51z"/>
<path d="M6665 3638 c-2 -7 -11 -35 -18 -63 -15 -52 -17 -51 -39 20 -18 54
-39 52 -58 -7 -8 -27 -18 -48 -22 -48 -3 0 -12 23 -19 50 -7 28 -19 50 -26 50
-17 0 -17 1 8 -81 25 -84 45 -89 68 -16 8 26 17 47 20 47 3 0 13 -21 21 -47
23 -71 42 -67 68 15 12 38 22 74 22 80 0 16 -19 15 -25 0z"/>
<path d="M6724 3637 c-10 -27 0 -140 14 -145 9 -3 12 16 12 72 0 69 -13 106
-26 73z"/>
<path d="M8012 3638 c-13 -7 -27 -27 -34 -50 -10 -34 -9 -42 9 -66 16 -21 30
-28 67 -30 27 -2 46 1 46 7 0 6 -15 11 -33 11 -30 0 -67 24 -67 43 0 4 25 7
55 7 50 0 55 2 55 23 0 28 -9 41 -37 56 -26 13 -31 13 -61 -1z m61 -26 c21
-23 13 -32 -28 -32 -17 0 -35 3 -38 7 -9 8 22 43 38 43 7 0 19 -8 28 -18z"/>
<path d="M8205 3640 c-3 -6 -17 -7 -31 -4 -24 6 -24 6 -24 -70 0 -61 3 -76 15
-76 11 0 15 12 15 46 0 57 14 84 44 84 29 0 36 -16 36 -82 0 -35 4 -48 13 -45
8 2 12 25 12 66 0 50 -4 66 -20 77 -22 16 -51 18 -60 4z"/>
<path d="M5972 3568 c2 -46 7 -73 16 -76 9 -3 12 16 12 72 0 62 -3 76 -15 76
-13 0 -15 -12 -13 -72z"/>
<path d="M7162 3568 c2 -46 7 -73 16 -76 9 -3 12 16 12 72 0 62 -3 76 -15 76
-13 0 -15 -12 -13 -72z"/>
<path d="M7350 3511 c0 -12 6 -21 16 -21 9 0 14 7 12 17 -5 25 -28 28 -28 4z"/>
<path d="M6063 3334 c-7 -3 -17 -21 -23 -40 -6 -19 -16 -34 -21 -34 -6 0 -3
-7 6 -16 11 -11 16 -32 15 -63 -2 -67 -1 -73 13 -68 8 2 11 21 9 61 -4 51 -2
58 17 63 25 6 27 18 6 27 -25 9 -18 43 10 50 14 4 23 11 20 16 -6 10 -31 12
-52 4z"/>
<path d="M7074 3327 c-10 -28 1 -210 14 -215 9 -3 12 24 12 112 0 73 -4 116
-10 116 -6 0 -13 -6 -16 -13z"/>
<path d="M7154 3327 c-10 -28 1 -210 14 -215 9 -3 12 24 12 112 0 73 -4 116
-10 116 -6 0 -13 -6 -16 -13z"/>
<path d="M7404 3327 c-10 -28 1 -210 14 -215 8 -2 12 10 12 43 0 54 14 85 38
85 30 0 42 -22 42 -77 0 -40 4 -53 15 -53 12 0 15 13 15 60 0 48 -4 63 -22 80
-21 19 -31 19 -75 3 -9 -4 -13 8 -13 41 0 43 -15 62 -26 33z"/>
<path d="M6135 3319 c-10 -15 1 -23 20 -15 9 3 13 10 10 16 -8 13 -22 13 -30
-1z"/>
<path d="M7586 3323 c-11 -11 -6 -23 9 -23 8 0 15 4 15 9 0 13 -16 22 -24 14z"/>
<path d="M7300 3285 c0 -9 -7 -18 -15 -21 -8 -4 -15 -10 -15 -15 0 -5 7 -9 15
-9 11 0 15 -12 15 -49 0 -67 7 -81 41 -81 33 0 39 15 9 23 -17 4 -20 14 -20
56 0 44 3 51 20 51 11 0 20 5 20 10 0 6 -7 10 -15 10 -8 0 -19 9 -25 20 -13
24 -30 26 -30 5z"/>
<path d="M8230 3286 c0 -8 -8 -17 -17 -21 -17 -6 -17 -7 -1 -19 11 -8 18 -30
20 -66 3 -57 21 -79 54 -66 18 8 18 9 -3 17 -20 7 -23 16 -23 58 0 41 3 50 21
54 23 6 17 27 -7 27 -8 0 -14 7 -14 15 0 8 -7 15 -15 15 -8 0 -15 -6 -15 -14z"/>
<path d="M5555 3260 c-3 -5 4 -41 16 -80 25 -85 45 -90 68 -17 8 26 17 47 21
47 4 0 13 -21 21 -47 8 -27 21 -48 29 -48 19 0 66 133 52 147 -8 8 -16 -8 -29
-51 -17 -58 -33 -80 -33 -45 0 9 -5 34 -12 55 -16 56 -42 52 -58 -8 -19 -69
-25 -70 -39 -9 -12 56 -24 75 -36 56z"/>
<path d="M5832 3258 c-13 -6 -27 -27 -34 -50 -10 -34 -9 -42 9 -66 16 -22 28
-27 63 -27 24 0 45 5 47 11 2 6 -10 8 -32 6 -36 -4 -65 11 -65 34 0 9 17 14
53 16 43 2 52 6 55 23 6 44 -50 75 -96 53z m66 -40 c3 -15 -4 -18 -32 -18 -34
0 -47 15 -29 34 13 13 58 1 61 -16z"/>
<path d="M6134 3256 c-10 -26 1 -139 14 -144 9 -3 12 17 12 77 0 49 -4 81 -10
81 -6 0 -13 -6 -16 -14z"/>
<path d="M6250 3263 c-43 -15 -56 -97 -20 -133 22 -22 42 -25 71 -10 22 12 25
0 9 -31 -8 -14 -21 -19 -50 -19 -46 0 -53 -15 -12 -25 36 -7 78 8 91 34 6 11
11 56 11 99 0 76 -1 80 -22 79 -13 -1 -32 2 -43 5 -11 3 -27 4 -35 1z m65 -73
c0 -43 -1 -45 -32 -48 -27 -3 -35 1 -45 22 -8 20 -8 32 0 52 10 21 18 25 45
22 31 -3 32 -5 32 -48z"/>
<path d="M6406 3263 c-12 -13 -6 -109 9 -131 14 -18 24 -21 71 -19 l55 2 -3
73 c-3 84 -22 97 -26 19 -3 -47 -6 -56 -29 -66 -38 -17 -53 1 -53 65 0 50 -9
72 -24 57z"/>
<path d="M6585 3258 c-11 -27 -1 -141 13 -146 8 -2 12 9 12 37 0 51 15 91 35
91 8 0 15 5 15 11 0 7 -9 9 -22 6 -12 -4 -28 -1 -35 5 -9 7 -14 6 -18 -4z"/>
<path d="M6730 3263 c-47 -19 -63 -84 -30 -126 18 -22 29 -27 67 -27 31 0 43
4 40 13 -2 7 -16 11 -31 9 -26 -3 -66 21 -66 40 0 4 25 8 55 8 50 0 55 2 55
23 0 28 -9 41 -37 56 -23 12 -30 12 -53 4z m58 -45 c3 -14 -4 -18 -31 -18 -40
0 -51 8 -35 27 16 19 62 12 66 -9z"/>
<path d="M6938 3263 c-30 -8 -20 -23 16 -23 21 0 36 -6 40 -15 4 -10 -1 -15
-14 -15 -30 0 -69 -21 -75 -41 -4 -10 -1 -27 5 -38 8 -17 20 -20 66 -20 l55 1
-2 59 c-1 33 -7 66 -13 74 -13 16 -53 25 -78 18z m57 -83 c3 -6 3 -19 0 -31
-5 -15 -14 -19 -33 -17 -34 4 -40 31 -10 46 30 14 35 14 43 2z"/>
<path d="M7682 3259 c-34 -13 -26 -57 13 -79 17 -9 30 -23 30 -31 0 -9 -11
-14 -30 -15 -43 -1 -47 -18 -5 -22 39 -3 57 6 60 28 5 35 -2 48 -30 60 -16 7
-30 19 -30 26 0 9 11 14 30 14 32 0 40 14 14 24 -19 7 -23 7 -52 -5z"/>
<path d="M7893 3258 c-70 -35 -42 -148 36 -148 41 0 51 6 69 37 38 70 -34 147
-105 111z m77 -43 c10 -27 0 -68 -20 -80 -23 -14 -58 4 -65 34 -9 43 9 71 46
71 22 0 32 -6 39 -25z"/>
<path d="M8046 3263 c-13 -13 -6 -109 10 -131 16 -24 67 -31 80 -11 5 8 9 8
14 -1 17 -27 30 4 30 70 0 51 -4 69 -15 74 -12 4 -15 -5 -15 -52 0 -47 -4 -60
-20 -70 -15 -9 -26 -10 -40 -2 -16 9 -20 21 -20 65 0 51 -9 73 -24 58z"/>
<path d="M7582 3188 c2 -46 7 -73 16 -76 9 -3 12 16 12 72 0 62 -3 76 -15 76
-13 0 -15 -12 -13 -72z"/>
<path d="M8322 3110 c-13 -51 8 -56 26 -7 15 42 15 47 -2 47 -8 0 -18 -18 -24
-40z"/>
<path d="M6185 2947 c-11 -28 0 -210 13 -215 15 -5 18 213 2 223 -6 3 -13 0
-15 -8z"/>
<path d="M6265 2947 c-11 -28 0 -210 13 -215 15 -5 18 213 2 223 -6 3 -13 0
-15 -8z"/>
<path d="M6407 2953 c-4 -3 -7 -55 -7 -115 0 -89 3 -108 15 -108 12 0 15 19
15 115 0 105 -5 127 -23 108z"/>
<path d="M7404 2947 c-10 -28 1 -210 14 -215 8 -2 12 7 12 27 0 44 15 46 46 6
25 -33 54 -47 54 -25 0 6 -4 10 -10 10 -5 0 -10 5 -10 12 0 6 -10 22 -22 35
l-22 23 28 29 c17 17 23 31 17 35 -6 4 -22 -7 -37 -24 -15 -16 -31 -30 -36
-30 -4 0 -8 29 -8 65 0 60 -13 86 -26 52z"/>
<path d="M6115 2914 c-9 -49 1 -54 19 -9 19 45 19 45 2 45 -8 0 -17 -15 -21
-36z"/>
<path d="M6653 2894 c-17 -19 -19 -25 -8 -32 8 -4 15 -29 17 -61 3 -59 21 -80
54 -66 18 8 17 9 -3 12 -21 4 -23 10 -23 58 0 46 3 53 23 59 18 5 19 8 7 15
-8 5 -18 7 -22 5 -4 -3 -8 2 -8 10 0 25 -14 25 -37 0z"/>
<path d="M5790 2857 c-6 -18 -17 -45 -24 -61 l-12 -29 -14 57 c-8 33 -19 56
-27 56 -15 0 -16 -11 -3 -42 5 -13 14 -42 20 -65 14 -58 35 -55 57 7 10 28 20
50 24 50 3 0 12 -21 20 -47 20 -65 39 -62 66 12 26 71 28 96 9 89 -7 -3 -19
-30 -25 -61 -14 -61 -22 -60 -41 9 -15 58 -34 67 -50 25z"/>
<path d="M5972 2873 c-32 -28 -38 -83 -12 -116 18 -22 29 -27 66 -27 24 0 44
5 44 10 0 6 -16 10 -36 10 -34 0 -63 20 -64 43 0 4 25 7 55 7 52 0 55 1 55 25
0 54 -66 83 -108 48z m76 -35 c3 -14 -4 -18 -31 -18 -40 0 -51 8 -35 27 16 19
62 12 66 -9z"/>
<path d="M6514 2880 c-45 -18 -55 -107 -16 -137 20 -15 88 -17 97 -3 4 6 -8
10 -29 10 -33 0 -66 20 -66 41 0 5 25 9 55 9 51 0 55 2 55 23 0 47 -50 77 -96
57z m66 -45 c0 -10 -11 -15 -34 -15 -43 0 -53 14 -25 34 25 17 59 6 59 -19z"/>
<path d="M6810 2879 c0 -8 12 -44 27 -81 l26 -68 -27 -29 c-34 -36 -16 -54 19
-21 27 25 98 187 89 201 -7 12 -34 -8 -34 -26 0 -7 -7 -30 -16 -51 l-16 -39
-22 59 c-19 55 -46 86 -46 55z"/>
<path d="M6997 2862 c-51 -53 -20 -132 52 -132 46 0 72 25 76 72 3 37 -9 59
-42 76 -34 19 -57 14 -86 -16z m95 -28 c24 -53 -44 -112 -77 -67 -31 40 -10
93 36 93 22 0 32 -6 41 -26z"/>
<path d="M7167 2884 c-13 -14 -7 -109 9 -132 17 -24 69 -31 77 -9 4 9 8 8 16
-3 19 -28 32 4 29 70 -4 84 -26 94 -30 14 -2 -41 -8 -60 -20 -68 -32 -20 -53
4 -56 65 -3 54 -12 76 -25 63z"/>
<path d="M7577 2883 c-4 -3 -7 -39 -7 -80 0 -58 3 -73 15 -73 11 0 15 13 15
53 0 57 12 77 46 77 27 0 34 -17 34 -81 0 -37 4 -49 15 -49 12 0 15 13 15 56
0 30 -4 64 -10 74 -12 23 -58 35 -76 19 -10 -8 -18 -9 -27 0 -8 6 -17 8 -20 4z"/>
<path d="M7783 2873 c-34 -16 -38 -26 -34 -78 4 -43 28 -65 71 -65 48 0 75 28
75 81 0 63 -52 92 -112 62z m79 -38 c15 -33 -6 -85 -35 -85 -45 0 -70 48 -47
91 16 29 67 26 82 -6z"/>
<path d="M7926 2881 c-10 -16 34 -151 50 -151 7 0 21 23 31 50 10 28 20 50 24
50 3 0 12 -21 20 -47 15 -48 35 -61 50 -33 20 39 40 123 31 132 -7 7 -16 -9
-28 -46 -10 -31 -21 -56 -25 -56 -3 0 -12 19 -18 43 -6 23 -15 49 -21 57 -9
13 -11 13 -20 0 -6 -8 -15 -34 -21 -57 -6 -24 -15 -43 -19 -43 -4 0 -13 21
-20 48 -15 53 -25 69 -34 53z"/>
<path d="M8166 2763 c-12 -12 -6 -33 9 -33 8 0 15 6 15 14 0 17 -14 28 -24 19z"/>
<path d="M1860 4121 c0 -6 5 -13 10 -16 6 -3 10 -21 10 -40 0 -19 -4 -37 -10
-40 -12 -7 -13 -35 -2 -35 28 0 42 102 18 126 -17 16 -26 18 -26 5z"/>
<path d="M1792 4049 c-18 -22 -40 -39 -47 -39 -16 0 -51 -47 -42 -57 3 -3 13
2 22 11 9 9 24 16 34 16 14 0 77 35 99 55 7 7 -9 43 -21 48 -7 3 -28 -13 -45
-34z"/>
<path d="M1803 3964 c-37 -19 -58 -40 -67 -71 -9 -27 14 -32 34 -8 14 17 40
20 40 5 0 -5 -8 -14 -17 -20 -14 -8 -9 -9 22 -4 22 4 43 12 47 18 8 12 -1 58
-12 66 -4 3 -9 10 -11 17 -3 9 -12 8 -36 -3z"/>
<path d="M1895 3790 c-3 -5 -1 -10 4 -10 6 0 11 5 11 10 0 6 -2 10 -4 10 -3 0
-8 -4 -11 -10z"/>
<path d="M1866 3732 c-8 -13 2 -39 17 -45 26 -9 87 5 87 20 0 12 -9 14 -40 10
-30 -4 -42 -1 -49 10 -5 10 -11 12 -15 5z"/>
<path d="M1890 3641 c0 -5 14 -11 30 -13 20 -3 30 0 30 9 0 8 -12 13 -30 13
-16 0 -30 -4 -30 -9z"/>
<path d="M1858 3579 c-24 -13 -23 -29 1 -29 32 0 50 11 44 26 -6 16 -21 17
-45 3z"/>
<path d="M4142 2890 c0 -14 2 -19 5 -12 2 6 2 18 0 25 -3 6 -5 1 -5 -13z"/>
<path d="M1251 1880 c-10 -6 36 -28 114 -54 60 -20 234 -33 259 -19 13 7 -10
11 -86 16 -74 4 -128 14 -191 34 -48 16 -91 27 -96 23z"/>
<path d="M1314 1791 c14 -22 136 -69 136 -53 0 5 -24 18 -52 30 -29 11 -62 24
-72 28 -14 5 -17 4 -12 -5z"/>
<path d="M1986 1495 c-22 -8 -62 -19 -90 -25 -28 -7 -67 -17 -86 -22 -19 -6
-41 -13 -49 -15 -8 -2 -12 -6 -9 -9 7 -7 135 23 200 47 29 10 60 19 70 19 9 0
20 5 23 10 8 14 -12 12 -59 -5z"/>
<path d="M3174 2220 c-32 -13 -40 -31 -20 -46 16 -11 17 -17 6 -50 -11 -32
-10 -39 3 -49 10 -7 17 -30 19 -61 l3 -49 51 -3 c64 -4 103 22 85 55 -8 16 -8
22 1 25 7 3 2 7 -10 10 -19 5 -22 3 -20 -14 2 -16 -3 -22 -22 -25 -35 -5 -80
16 -80 38 0 18 25 25 67 20 17 -2 26 17 19 45 -6 22 -10 24 -45 18 -30 -5 -39
-3 -45 11 -7 20 0 35 18 35 17 0 48 35 39 43 -9 9 -43 8 -69 -3z m31 -20 c-3
-5 -11 -10 -16 -10 -6 0 -7 5 -4 10 3 6 11 10 16 10 6 0 7 -4 4 -10z m33 -97
c-10 -2 -26 -2 -35 0 -10 3 -2 5 17 5 19 0 27 -2 18 -5z m-11 -119 c-3 -3 -12
-4 -19 -1 -8 3 -5 6 6 6 11 1 17 -2 13 -5z"/>
<path d="M3312 2217 c-39 -12 -37 -28 4 -40 36 -10 108 15 102 35 -6 16 -63
19 -106 5z m68 -17 c-8 -5 -31 -9 -50 -9 -29 0 -31 2 -15 9 11 5 34 9 50 9 23
1 26 -2 15 -9z"/>
<path d="M3448 2223 c-14 -28 -1 -38 55 -41 55 -3 57 -2 54 20 -3 20 -10 23
-55 26 -27 2 -52 -1 -54 -5z m89 -20 c-10 -9 -68 -10 -74 -1 -2 5 15 8 38 8
23 0 39 -3 36 -7z"/>
<path d="M3421 2174 c0 -11 3 -14 6 -6 3 7 2 16 -1 19 -3 4 -6 -2 -5 -13z"/>
<path d="M3520 2149 c-36 -15 -180 -21 -195 -9 -10 8 -14 1 -18 -27 -6 -47 2
-57 37 -43 15 5 43 10 62 10 22 0 37 6 40 15 9 22 19 18 32 -10 22 -48 17 -55
-42 -55 -56 0 -86 -16 -86 -46 0 -21 21 -17 27 6 4 17 14 20 54 20 26 0 51 -4
54 -10 4 -6 -12 -10 -41 -10 -60 0 -54 -5 14 -14 l53 -7 -2 38 c-1 21 -6 46
-11 56 -7 14 -3 19 19 28 15 6 42 8 60 6 17 -3 33 -3 36 -1 9 9 -17 52 -29 47
-7 -2 -15 0 -19 6 -7 13 -12 13 -45 0z m35 -19 c3 -5 0 -10 -9 -10 -8 0 -23
-3 -33 -7 -16 -6 -16 -5 -4 10 15 19 37 22 46 7z m-165 -30 c-33 -11 -50 -12
-50 -2 0 4 17 8 38 9 32 1 33 0 12 -7z"/>
<path d="M3610 2070 c0 -5 5 -10 11 -10 5 0 7 5 4 10 -3 6 -8 10 -11 10 -2 0
-4 -4 -4 -10z"/>
<path d="M3593 2043 c-35 -5 -58 -26 -50 -47 4 -9 17 -12 43 -9 21 2 40 6 43
8 2 3 10 0 18 -7 7 -6 16 -8 20 -5 9 10 -18 67 -31 65 -6 0 -25 -3 -43 -5z
m37 -27 c0 -6 -16 -12 -36 -14 -29 -2 -34 1 -26 10 13 16 62 20 62 4z"/>
<path d="M3878 1883 c6 -2 18 -2 25 0 6 3 1 5 -13 5 -14 0 -19 -2 -12 -5z"/>
<path d="M2814 1879 c-3 -5 9 -9 25 -9 17 0 31 2 31 4 0 8 -51 13 -56 5z"/>
<path d="M2900 1836 c0 -22 3 -27 11 -19 8 8 8 16 0 30 -9 16 -10 14 -11 -11z"/>
<path d="M2871 1791 c-1 -24 2 -32 9 -25 7 7 7 19 1 35 -9 23 -10 22 -10 -10z"/>
<path d="M3058 1703 c12 -2 30 -2 40 0 9 3 -1 5 -23 4 -22 0 -30 -2 -17 -4z"/>
<path d="M3660 1820 c-13 -9 -13 -10 0 -9 8 0 24 4 35 9 l20 9 -20 0 c-11 0
-27 -4 -35 -9z"/>
<path d="M640 5551 c-97 -12 -125 -19 -125 -31 0 -10 19 -18 63 -26 57 -10 93
-24 64 -24 -7 0 -12 -7 -12 -15 0 -13 -35 -15 -256 -15 -157 0 -263 -4 -275
-10 -17 -10 -19 -22 -19 -140 0 -70 3 -135 6 -144 6 -14 77 -16 704 -16 627 0
698 2 704 16 12 30 7 269 -6 282 -9 9 -84 12 -275 12 -227 0 -263 2 -263 15 0
8 0 18 -1 23 0 4 26 12 58 17 40 7 58 15 58 25 0 11 -30 18 -130 32 -152 20
-136 20 -295 -1z m106 -158 c30 -13 55 -18 60 -13 5 5 36 16 69 24 46 13 118
16 331 16 l272 0 6 -22 c3 -13 6 -73 6 -134 0 -107 -1 -112 -22 -118 -30 -8
-1332 -8 -1352 0 -14 5 -16 27 -16 141 l0 134 298 -3 c278 -3 300 -5 348 -25z"/>
<path d="M140 5346 c0 -7 9 -16 20 -19 17 -4 20 -14 20 -67 0 -58 1 -61 22
-58 20 3 22 8 20 53 -3 54 3 68 31 78 34 13 6 27 -54 27 -44 0 -59 -4 -59 -14z"/>
<path d="M728 5354 c-5 -4 -8 -41 -8 -81 0 -71 1 -74 23 -71 16 2 22 10 22 27
0 20 8 27 33 33 18 5 35 15 39 23 11 30 23 14 23 -29 0 -25 5 -48 12 -52 7 -5
9 -1 6 12 -4 14 0 20 12 21 10 1 20 -7 23 -18 3 -10 12 -19 21 -19 19 0 20 4
4 31 -10 17 -10 23 0 26 6 3 12 15 12 28 0 18 -7 24 -34 29 -18 4 -40 4 -49 1
-9 -4 -21 2 -29 14 -15 22 -96 40 -110 25z m67 -34 c4 -6 1 -18 -6 -26 -12
-14 -14 -14 -20 3 -10 29 11 47 26 23z m123 -37 c-4 -22 -22 -20 -26 1 -2 10
3 16 13 16 10 0 15 -7 13 -17z"/>
<path d="M985 5329 c-10 -25 -2 -105 10 -99 12 6 14 66 4 95 -6 17 -8 18 -14
4z"/>
<path d="M277 5313 c-8 -8 -9 -60 -1 -89 4 -15 14 -21 35 -22 16 0 29 4 29 9
0 5 -7 9 -15 9 -8 0 -15 7 -15 15 0 8 7 15 15 15 8 0 15 5 15 10 0 6 -7 10
-15 10 -8 0 -15 7 -15 15 0 8 7 15 15 15 8 0 15 5 15 10 0 11 -53 14 -63 3z"/>
<path d="M377 5268 c-9 -29 -14 -54 -10 -57 3 -4 8 0 10 7 7 18 44 15 59 -5
20 -29 25 -10 10 42 -13 43 -29 64 -47 65 -3 0 -13 -23 -22 -52z m33 5 c0 -5
-5 -15 -10 -23 -8 -12 -10 -11 -10 8 0 12 5 22 10 22 6 0 10 -3 10 -7z"/>
<path d="M492 5301 c-12 -10 -22 -29 -22 -41 0 -25 34 -60 60 -60 9 0 25 7 36
15 18 15 17 16 -12 10 -38 -7 -59 14 -50 49 7 27 36 43 47 25 4 -7 12 -8 20
-4 9 6 8 10 -7 16 -31 12 -50 10 -72 -10z"/>
<path d="M605 5290 c-8 -34 2 -90 16 -90 5 0 9 11 9 24 0 41 33 43 41 3 8 -38
24 -15 24 35 0 35 -4 53 -14 56 -10 3 -12 -1 -9 -16 4 -13 0 -23 -9 -26 -26
-10 -33 -6 -33 19 0 35 -17 31 -25 -5z"/>
<path d="M1035 5304 c4 -11 13 -34 19 -51 18 -49 21 -48 45 8 12 28 20 53 17
56 -3 3 -10 -6 -15 -21 -13 -32 -28 -34 -33 -4 -2 13 -11 24 -22 26 -15 3 -17
0 -11 -14z"/>
<path d="M1144 5303 c-3 -10 -13 -35 -21 -56 -17 -40 -12 -62 7 -28 14 27 24
26 50 -1 27 -29 34 -19 20 33 -18 66 -44 90 -56 52z m26 -31 c0 -13 -12 -22
-22 -16 -10 6 -1 24 13 24 5 0 9 -4 9 -8z"/>
<path d="M1259 5313 c-17 -4 -29 -31 -29 -65 0 -25 45 -51 75 -44 14 4 25 13
25 21 0 12 -4 13 -19 4 -28 -18 -51 -4 -51 30 0 35 29 58 48 39 7 -7 15 -8 19
-4 17 17 -29 30 -68 19z"/>
<path d="M1353 5296 c9 -12 17 -38 19 -57 4 -44 20 -44 29 -1 4 19 12 39 18
45 6 6 11 18 11 27 -1 13 -3 12 -14 -2 -16 -22 -32 -23 -40 -3 -3 8 -13 15
-22 15 -15 0 -15 -2 -1 -24z"/>
</g>
</svg>
